<svg data-v-6805eed4="" version="1.0" xmlns="http://www.w3.org/2000/svg" xmlns:xlink="http://www.w3.org/1999/xlink" width="100%" height="100%" viewBox="0 0 250.000000 250.000000">
<g data-v-6805eed4="" fill="#333" class="icon-text-wrapper icon-svg-group iconsvg" transform="translate(38.5999984741211,27.319900512695312)"><g class="iconsvg-imagesvg" transform="translate(0,0)"><g><rect fill="#333" fill-opacity="0" stroke-width="2" x="0" y="0" width="172.80000000000004" height="195.36019536019543" class="image-rect"></rect> <svg x="0" y="0" width="172.80000000000004" height="195.36019536019543" filtersec="colorsb5863650134" class="image-svg-svg primary" style="overflow: visible;"><svg xmlns="http://www.w3.org/2000/svg" viewBox="0.002512118546292186 -0.004768104758113623 37.54154968261719 42.44289779663086"><path d="M19.14 10.5a7.32 7.32 0 0 1 6.06-3.75h7.61c-.61 1.59-1.64 3-2.36 4.51-.79 1.3-1.61 2.56-2.34 3.9q-4.87 8.4-9.73 16.84a7.16 7.16 0 0 1-6.1 3.7c-2.53.06-5.06 0-7.59 0 .72-1.55 1.68-3 2.44-4.5.79-1.28 1.58-2.56 2.3-3.89 3.27-5.59 6.48-11.2 9.71-16.81z" fill="#27BA9B"></path><path d="M8.54 2a4.08 4.08 0 0 1 3.71-2c5.43 0 10.87 0 16.3.05 2.4.24 3.36 2.7 4.39 4.53H25.2a9.12 9.12 0 0 0-5.65 2.16c-1.84 1.49-2.77 3.72-4 5.7-1.82 3.09-3.54 6.24-5.42 9.29l-2.56-1.16c.57 2.26 1.26 4.48 1.86 6.73-.72 1.33-1.51 2.61-2.3 3.89-2.21-3.61-4.25-7.32-6.4-11a4.12 4.12 0 0 1-.18-4.39Q4.53 8.91 8.54 2z" fill="#42B883"></path><path d="M28.11 15.14c.73-1.34 1.55-2.6 2.34-3.9 2.21 3.6 4.22 7.31 6.37 10.94a4.27 4.27 0 0 1 .16 4.5q-3.91 6.8-7.83 13.58a4.18 4.18 0 0 1-3.93 2.17H9.27c-2.54-.07-3.59-2.66-4.65-4.55 3-.1 5.93.12 8.88-.12a9.57 9.57 0 0 0 6.6-4.49c2.43-4.19 4.84-8.39 7.27-12.57.85.4 1.72.77 2.61 1.1-.59-2.25-1.2-4.47-1.87-6.66z" fill="#35495E"></path></svg></svg> </g></g> <g transform="translate(86.4000015258789,202.36019897460938)"><g data-gra="path-name" fill-rule="" class="tp-name iconsvg-namesvg"><g transform="scale(1)"><g><path d="" transform="translate(0, 0)"></path></g>       </g></g> </g></g>
</svg>